<svg width="16" height="16" viewBox="0 0 16 16" fill="none" xmlns="http://www.w3.org/2000/svg">
<path fill-rule="evenodd" clip-rule="evenodd" d="M2.62475 6.50868C3.76019 7.77028 5.49337 8.99879 7.96165 8.99879C10.4299 8.99879 12.1631 7.77028 13.2986 6.50868C13.8667 5.87746 14.2783 5.24444 14.5477 4.76919C14.682 4.53209 14.7801 4.33574 14.8438 4.20054C14.8757 4.13298 14.8989 4.08082 14.9137 4.04663C14.9211 4.02954 14.9264 4.01695 14.9296 4.00919L14.9329 4.00121L14.9333 4.00036C14.9332 4.00053 14.9331 4.00072 15.4283 4.1988C15.9235 4.39687 15.9234 4.3971 15.9233 4.39735L15.9231 4.39795L15.9225 4.39952L15.9206 4.40411L15.9145 4.419C15.9093 4.43142 15.902 4.44878 15.8924 4.47075C15.8734 4.51469 15.8456 4.57711 15.8087 4.65539C15.7349 4.81185 15.6247 5.03217 15.4757 5.29507C15.1783 5.81982 14.7233 6.52013 14.0914 7.22224C13.8963 7.43899 13.6838 7.65652 13.4532 7.86943L15.2721 9.68834L14.5179 10.4426L12.6247 8.54943C11.5497 9.32836 10.183 9.94074 8.49499 10.0486L8.495 12.1988L7.42833 12.1988L7.42832 10.0486C5.74028 9.94075 4.37362 9.32837 3.29861 8.54944L1.40546 10.4426L0.651209 9.68834L2.4701 7.86944C2.23955 7.65652 2.02697 7.43899 1.8319 7.22224C1.2 6.52012 0.745006 5.81981 0.447651 5.29507C0.298673 5.03216 0.188431 4.81185 0.114668 4.65538C0.0777664 4.57711 0.0499344 4.51468 0.030896 4.47075C0.0213751 4.44878 0.0140477 4.43142 0.00887967 4.419L0.00274077 4.40411L0.000876558 4.39952L0.00024424 4.39795L2.83322e-06 4.39735C-9.708e-05 4.3971 -0.000188764 4.39687 0.494999 4.1988C0.990187 4.00072 0.990112 4.00053 0.990045 4.00037L0.98995 4.00013L0.990391 4.00121L0.993684 4.00919C0.996914 4.01696 1.00222 4.02954 1.00962 4.04664C1.02444 4.08083 1.04765 4.13298 1.0795 4.20054C1.14323 4.33574 1.24132 4.53209 1.37568 4.76919C1.64498 5.24444 2.05666 5.87747 2.62475 6.50868ZM0.989904 4.00002C0.989887 3.99997 0.989903 4.00001 0.98995 4.00013Z" fill="#FF868E"/>
</svg>
